Coordinates
version=1
nRows=20
nColumns=38
inDegrees=no

Units are S.I. units (second, meters, Newtons, ...)
If the header above contains a line with 'inDegrees', this indicates whether rotational values are in degrees (yes) or radians (no).

endheader
time	pelvis_tilt	pelvis_list	pelvis_rotation	pelvis_tx	pelvis_ty	pelvis_tz	hip_flexion_r	hip_adduction_r	hip_rotation_r	knee_angle_r	ankle_angle_r	subtalar_angle_r	mtp_angle_r	hip_flexion_l	hip_adduction_l	hip_rotation_l	knee_angle_l	ankle_angle_l	subtalar_angle_l	mtp_angle_l	lumbar_extension	lumbar_bending	lumbar_rotation	arm_flex_r	arm_add_r	arm_rot_r	elbow_flex_r	pro_sup_r	wrist_flex_r	wrist_dev_r	arm_flex_l	arm_add_l	arm_rot_l	elbow_flex_l	pro_sup_l	wrist_flex_l	wrist_dev_l
1.16	0.62397	1.30701	1.16861	0.630637	0.861768	1.02744	0.374783	0.104671	-0.127397	0.325192	-0.00497061	0	0	0.419506	-0.149521	-0.0511654	1.21403	-0.057544	0	0	0.0206317	0.150763	-0.0747186	-0.106016	-0.324394	0.555865	0.419723	0.762678	0	0	-0.0711251	-0.492652	0.322366	0.688132	1.24271	0	0
1.17	0.61774	1.3109	1.17181	0.630045	0.874747	1.02958	0.349435	0.105309	-0.128156	0.305591	-0.00862334	0	0	0.436506	-0.145601	-0.055726	1.20121	-0.0397405	0	0	0.0192041	0.147603	-0.0708282	-0.106829	-0.325196	0.559937	0.417961	0.759737	0	0	-0.0765908	-0.486672	0.318982	0.685917	1.23812	0	0
1.18	0.611891	1.3159	1.17422	0.629449	0.887747	1.03165	0.3224	0.105621	-0.129753	0.287034	-0.0126946	0	0	0.451255	-0.142781	-0.063554	1.18326	-0.0263133	0	0	0.0160855	0.143957	-0.066254	-0.108152	-0.326386	0.562258	0.417705	0.756862	0	0	-0.0823077	-0.481533	0.315205	0.685336	1.2336	0	0
1.19	0.604837	1.32213	1.17661	0.628865	0.900734	1.03364	0.29487	0.105447	-0.134645	0.269853	-0.0166483	0	0	0.463364	-0.140466	-0.0743987	1.16052	-0.0145894	0	0	0.0109116	0.139388	-0.0604948	-0.109742	-0.327989	0.563191	0.419279	0.754277	0	0	-0.088187	-0.47723	0.310881	0.686582	1.22874	0	0
1.2	0.600345	1.33147	1.1735	0.628453	0.91384	1.03573	0.264697	0.105241	-0.143001	0.252865	-0.0216296	0	0	0.469688	-0.140475	-0.0922531	1.13255	-0.00343094	0	0	0.00114913	0.134546	-0.0515449	-0.111587	-0.330838	0.562517	0.423771	0.75288	0	0	-0.0929666	-0.473379	0.307485	0.688423	1.22345	0	0
1.21	0.59598	1.3406	1.16927	0.628128	0.926874	1.03761	0.235905	0.104902	-0.148886	0.236011	-0.0268288	0	0	0.47517	-0.141907	-0.114042	1.10019	0.00499716	0	0	-0.00892093	0.129863	-0.0414333	-0.114009	-0.334279	0.559235	0.429786	0.753314	0	0	-0.09726	-0.469864	0.304569	0.690602	1.21921	0	0
1.22	0.591995	1.35	1.16408	0.627899	0.939878	1.0393	0.207243	0.104299	-0.153535	0.221575	-0.0312944	0	0	0.47887	-0.144779	-0.139617	1.06361	0.0107222	0	0	-0.0197982	0.124736	-0.0305496	-0.116704	-0.337794	0.554367	0.436852	0.756335	0	0	-0.101259	-0.467029	0.301653	0.693865	1.21614	0	0
1.23	0.592461	1.36069	1.153	0.627778	0.952893	1.04102	0.17753	0.103813	-0.157172	0.209159	-0.0356325	0	0	0.478724	-0.15002	-0.170618	1.02253	0.0124652	0	0	-0.0336314	0.119629	-0.0178898	-0.119488	-0.341285	0.54614	0.445378	0.760843	0	0	-0.104195	-0.464269	0.298355	0.697288	1.21454	0	0
1.24	0.590399	1.37123	1.14348	0.627739	0.965853	1.04249	0.148317	0.102322	-0.160105	0.198245	-0.0389466	0	0	0.477214	-0.155022	-0.204199	0.977398	0.0104301	0	0	-0.0473029	0.113464	-0.00459871	-0.122627	-0.344445	0.536086	0.454763	0.765131	0	0	-0.106927	-0.461882	0.294993	0.700747	1.21449	0	0
1.25	0.590066	1.38151	1.13188	0.627702	0.978742	1.04383	0.11963	0.100946	-0.161044	0.186258	-0.0428354	0	0	0.474008	-0.160484	-0.240845	0.927864	0.00465563	0	0	-0.0612663	0.107449	0.00911902	-0.125355	-0.347646	0.525818	0.463852	0.769953	0	0	-0.108837	-0.458576	0.290003	0.70287	1.21576	0	0
1.26	0.593408	1.39087	1.11639	0.627701	0.991596	1.04499	0.0922059	0.100671	-0.160672	0.172017	-0.0476784	0	0	0.469643	-0.165357	-0.276997	0.873915	-0.00433427	0	0	-0.0748022	0.102156	0.0228396	-0.127535	-0.350796	0.516096	0.472362	0.775386	0	0	-0.110285	-0.45472	0.284289	0.703782	1.218	0	0
1.27	0.595971	1.39858	1.10175	0.627694	1.00433	1.04582	0.0674622	0.100322	-0.160441	0.157551	-0.0534933	0	0	0.465447	-0.168346	-0.309597	0.816676	-0.0154676	0	0	-0.0866165	0.0970799	0.0360795	-0.129205	-0.3538	0.507469	0.48023	0.781329	0	0	-0.111398	-0.450819	0.279012	0.703591	1.22131	0	0
1.28	0.49185	1.40071	1.19461	0.627406	1.01668	1.04371	0.0511413	0.0631818	-0.148714	0.159745	-0.0522131	0	0	0.474357	-0.151097	-0.336493	0.758314	-0.0239847	0	0	-0.0804192	0.0758489	0.0452796	-0.138509	-0.355437	0.495044	0.495143	0.788237	0	0	-0.120904	-0.453932	0.273543	0.712921	1.22197	0	0
1.29	0.474204	1.40362	1.20177	0.627142	1.02919	1.04354	0.0338144	0.0597662	-0.151214	0.154306	-0.0529443	0	0	0.473596	-0.146948	-0.358684	0.692357	-0.0358645	0	0	-0.084479	0.0698861	0.0554208	-0.139858	-0.35717	0.488328	0.500344	0.793356	0	0	-0.122649	-0.450325	0.269829	0.710436	1.22332	0	0
1.3	0.454858	1.4056	1.21159	0.626764	1.04168	1.0431	0.0173959	0.0559854	-0.154779	0.149043	-0.0546756	0	0	0.472408	-0.140052	-0.376573	0.621953	-0.0514622	0	0	-0.087778	0.0640237	0.0645748	-0.140961	-0.358614	0.482114	0.505431	0.797421	0	0	-0.124031	-0.446747	0.265408	0.707399	1.22371	0	0
1.31	0.434728	1.40515	1.22341	0.626298	1.05411	1.04221	0.00351692	0.052578	-0.158148	0.144064	-0.0560236	0	0	0.472771	-0.130733	-0.387399	0.547472	-0.0688854	0	0	-0.0881866	0.0589882	0.0721328	-0.14192	-0.359672	0.476675	0.50979	0.800751	0	0	-0.125592	-0.443482	0.261782	0.703521	1.2239	0	0
1.32	0.417819	1.40262	1.23221	0.625868	1.06646	1.0409	-0.0076146	0.0501772	-0.157778	0.1404	-0.0560091	0	0	0.473848	-0.120618	-0.390919	0.469698	-0.0853857	0	0	-0.0865739	0.0550361	0.0791837	-0.142525	-0.360731	0.473	0.513966	0.80379	0	0	-0.127395	-0.440569	0.258751	0.699475	1.22384	0	0
1.33	0.401772	1.39912	1.23944	0.625416	1.0786	1.0393	-0.0164756	0.0477537	-0.15424	0.139378	-0.0549892	0	0	0.474065	-0.108913	-0.386714	0.387716	-0.10346	0	0	-0.0847782	0.0514443	0.0867183	-0.142799	-0.362162	0.469213	0.519113	0.805852	0	0	-0.128808	-0.437761	0.255872	0.695739	1.22361	0	0
1.34	0.38793	1.39313	1.24671	0.624773	1.09076	1.03722	-0.0224715	0.0461594	-0.152731	0.139818	-0.0533807	0	0	0.475369	-0.0955682	-0.368766	0.303313	-0.123878	0	0	-0.0800407	0.0490549	0.0921003	-0.144155	-0.363209	0.46453	0.524861	0.807353	0	0	-0.130608	-0.435294	0.253301	0.691837	1.22323	0	0
1.35	0.379562	1.38542	1.25	0.624	1.10312	1.03466	-0.0267011	0.0455861	-0.153972	0.141448	-0.0509637	0	0	0.478975	-0.0846014	-0.346803	0.226544	-0.138543	0	0	-0.0726994	0.0481495	0.0957186	-0.146716	-0.364232	0.459658	0.531177	0.808146	0	0	-0.133665	-0.43365	0.251674	0.688269	1.22306	0	0
